<svg xmlns="http://www.w3.org/2000/svg" viewBox="0 0 360 260" role="img" aria-label="План участка"><defs><clipPath id="c"><rect width="360" height="260"/></clipPath></defs><g clip-path="url(#c)"><rect width="360" height="260" fill="#eef1ec"/><path d="M173.3,160.4 L173.4,161.1 L173.3,161.9 L173.2,162.7 L173.1,163.4 L172.8,164.1 L172.5,164.9 L172.2,165.6 L171.8,166.3 L171.4,166.9 L170.9,167.6 L170.4,168.2 L169.9,168.8 L169.3,169.4 L168.8,170.0 L168.2,170.6 L167.7,171.1 L167.1,171.7 L166.5,172.3 L165.9,172.8 L165.2,173.4 L164.6,173.9 L163.9,174.4 L163.2,174.9 L162.5,175.4 L161.7,175.8 L160.9,176.2 L160.0,176.6 L159.1,176.9 L158.2,177.1 L157.3,177.3 L156.4,177.5 L155.4,177.5 L154.5,177.5 L153.5,177.5 L152.6,177.3 L151.7,177.2 L150.8,177.0 L149.9,176.7 L149.0,176.4 L148.2,176.1 L147.4,175.7 L146.6,175.4 L145.9,175.0 L145.1,174.6 L144.4,174.3 L143.7,173.9 L143.0,173.5 L142.3,173.1 L141.7,172.7 L141.0,172.3 L140.3,171.9 L139.7,171.4 L139.1,171.0 L138.5,170.5 L137.9,170.0 L137.3,169.5 L136.8,168.9 L136.3,168.3 L135.8,167.8 L135.4,167.1 L135.0,166.5 L134.7,165.9 L134.4,165.2 L134.1,164.5 L133.9,163.9 L133.7,163.2 L133.5,162.5 L133.3,161.8 L133.2,161.1 L133.0,160.4 L132.9,159.6 L132.8,158.9 L132.7,158.2 L132.7,157.4 L132.6,156.6 L132.6,155.8 L132.7,155.1 L132.8,154.3 L132.9,153.5 L133.1,152.7 L133.4,151.9 L133.7,151.1 L134.1,150.4 L134.6,149.7 L135.2,149.0 L135.8,148.4 L136.6,147.8 L137.3,147.3 L138.1,146.8 L139.0,146.4 L139.9,146.0 L140.8,145.7 L141.8,145.5 L142.7,145.3 L143.7,145.1 L144.6,145.0 L145.5,144.9 L146.5,144.9 L147.4,144.8 L148.3,144.8 L149.1,144.8 L150.0,144.8 L150.9,144.8 L151.7,144.8 L152.6,144.8 L153.4,144.8 L154.3,144.9 L155.1,144.9 L156.0,145.0 L156.8,145.1 L157.7,145.2 L158.5,145.4 L159.3,145.6 L160.1,145.9 L160.9,146.1 L161.7,146.5 L162.5,146.8 L163.2,147.2 L163.9,147.6 L164.5,148.1 L165.2,148.5 L165.8,149.0 L166.4,149.5 L167.0,150.1 L167.5,150.6 L168.0,151.1 L168.6,151.7 L169.1,152.3 L169.6,152.9 L170.1,153.5 L170.6,154.1 L171.0,154.7 L171.4,155.3 L171.9,156.0 L172.2,156.7 L172.6,157.4 L172.8,158.1 L173.1,158.8 L173.2,159.6 Z" fill="none" stroke="#2f6b4f" stroke-width="1.4" opacity="0.55"/>
<path d="M200.3,160.4 L200.4,162.1 L200.3,163.9 L200.1,165.6 L199.7,167.4 L199.2,169.1 L198.5,170.7 L197.7,172.4 L196.8,174.0 L195.8,175.5 L194.7,177.0 L193.5,178.4 L192.3,179.8 L191.1,181.2 L189.8,182.5 L188.5,183.9 L187.2,185.2 L185.9,186.5 L184.5,187.8 L183.1,189.0 L181.7,190.3 L180.2,191.5 L178.6,192.7 L177.0,193.8 L175.3,194.9 L173.5,195.9 L171.6,196.9 L169.7,197.7 L167.7,198.4 L165.6,199.0 L163.5,199.4 L161.3,199.7 L159.1,199.8 L156.9,199.8 L154.7,199.7 L152.6,199.4 L150.5,199.0 L148.4,198.5 L146.4,197.9 L144.4,197.3 L142.5,196.5 L140.7,195.8 L138.9,194.9 L137.2,194.1 L135.5,193.2 L133.8,192.3 L132.2,191.5 L130.6,190.6 L129.0,189.7 L127.4,188.7 L125.9,187.8 L124.4,186.8 L122.9,185.8 L121.5,184.8 L120.1,183.7 L118.7,182.5 L117.4,181.3 L116.2,180.0 L115.1,178.7 L114.1,177.4 L113.1,176.0 L112.2,174.5 L111.4,173.0 L110.7,171.5 L110.1,170.0 L109.6,168.4 L109.1,166.8 L108.6,165.2 L108.3,163.6 L107.9,162.0 L107.6,160.4 L107.3,158.7 L107.1,157.0 L106.9,155.3 L106.8,153.5 L106.7,151.8 L106.7,150.0 L106.8,148.2 L107.0,146.3 L107.3,144.5 L107.8,142.7 L108.4,140.9 L109.2,139.1 L110.2,137.4 L111.3,135.8 L112.6,134.2 L114.1,132.8 L115.7,131.4 L117.5,130.2 L119.3,129.2 L121.3,128.2 L123.4,127.4 L125.5,126.7 L127.7,126.2 L129.9,125.7 L132.0,125.4 L134.2,125.1 L136.4,124.9 L138.5,124.8 L140.6,124.7 L142.6,124.6 L144.7,124.6 L146.7,124.6 L148.7,124.6 L150.6,124.6 L152.6,124.6 L154.5,124.6 L156.5,124.7 L158.5,124.9 L160.4,125.0 L162.4,125.3 L164.3,125.6 L166.2,126.0 L168.1,126.4 L170.0,127.0 L171.8,127.7 L173.6,128.4 L175.3,129.2 L176.9,130.1 L178.5,131.1 L180.1,132.1 L181.5,133.2 L183.0,134.3 L184.3,135.5 L185.6,136.7 L186.9,137.9 L188.1,139.2 L189.3,140.5 L190.5,141.8 L191.7,143.1 L192.8,144.5 L193.9,145.9 L195.0,147.3 L196.0,148.8 L196.9,150.3 L197.8,151.9 L198.5,153.5 L199.2,155.2 L199.7,156.9 L200.1,158.6 Z" fill="none" stroke="#2f6b4f" stroke-width="0.8" opacity="0.51"/>
<path d="M227.3,160.4 L227.4,163.1 L227.3,165.9 L226.9,168.6 L226.3,171.3 L225.5,174.0 L224.4,176.6 L223.2,179.2 L221.7,181.6 L220.1,184.0 L218.4,186.4 L216.7,188.6 L214.8,190.8 L212.9,193.0 L210.9,195.1 L208.9,197.2 L206.8,199.2 L204.7,201.2 L202.6,203.2 L200.4,205.2 L198.1,207.2 L195.8,209.1 L193.3,211.0 L190.8,212.8 L188.1,214.5 L185.3,216.1 L182.4,217.5 L179.3,218.8 L176.2,219.9 L172.9,220.8 L169.6,221.5 L166.2,221.9 L162.8,222.2 L159.4,222.2 L156.0,222.0 L152.6,221.5 L149.3,220.9 L146.0,220.1 L142.9,219.2 L139.8,218.1 L136.8,217.0 L133.9,215.8 L131.1,214.5 L128.4,213.2 L125.8,211.8 L123.2,210.4 L120.6,209.0 L118.1,207.6 L115.7,206.2 L113.2,204.8 L110.8,203.3 L108.5,201.8 L106.1,200.2 L103.9,198.5 L101.7,196.8 L99.6,195.0 L97.6,193.1 L95.7,191.2 L93.9,189.1 L92.3,187.0 L90.8,184.8 L89.4,182.5 L88.2,180.2 L87.1,177.8 L86.1,175.4 L85.3,173.0 L84.5,170.5 L83.8,168.0 L83.2,165.5 L82.7,162.9 L82.2,160.4 L81.7,157.7 L81.4,155.1 L81.1,152.4 L80.8,149.7 L80.7,146.9 L80.7,144.1 L80.9,141.3 L81.2,138.4 L81.7,135.5 L82.5,132.7 L83.4,129.8 L84.7,127.1 L86.2,124.4 L88.0,121.9 L90.0,119.4 L92.3,117.2 L94.9,115.1 L97.6,113.2 L100.6,111.5 L103.7,110.0 L106.9,108.8 L110.2,107.7 L113.6,106.8 L117.0,106.1 L120.4,105.6 L123.8,105.2 L127.2,104.9 L130.5,104.7 L133.8,104.5 L137.0,104.4 L140.2,104.4 L143.3,104.3 L146.4,104.3 L149.5,104.3 L152.6,104.4 L155.7,104.5 L158.7,104.6 L161.8,104.8 L164.8,105.1 L167.9,105.4 L170.9,105.9 L173.9,106.5 L176.9,107.3 L179.8,108.2 L182.7,109.2 L185.4,110.3 L188.1,111.6 L190.7,113.0 L193.2,114.5 L195.6,116.1 L197.9,117.8 L200.1,119.6 L202.2,121.4 L204.3,123.3 L206.3,125.2 L208.2,127.2 L210.1,129.2 L212.0,131.3 L213.8,133.4 L215.5,135.5 L217.3,137.7 L218.9,139.9 L220.5,142.3 L221.9,144.7 L223.3,147.1 L224.5,149.7 L225.5,152.3 L226.3,154.9 L226.9,157.6 Z" fill="none" stroke="#2f6b4f" stroke-width="0.8" opacity="0.47"/>
<path d="M254.3,160.4 L254.5,164.1 L254.3,167.9 L253.8,171.6 L253.0,175.3 L251.8,178.9 L250.4,182.5 L248.6,185.9 L246.7,189.3 L244.5,192.6 L242.2,195.8 L239.8,198.8 L237.2,201.8 L234.6,204.8 L231.9,207.6 L229.2,210.4 L226.4,213.2 L223.6,216.0 L220.6,218.7 L217.7,221.4 L214.6,224.1 L211.4,226.7 L208.0,229.2 L204.6,231.7 L200.9,234.0 L197.1,236.2 L193.1,238.1 L189.0,239.9 L184.7,241.4 L180.3,242.6 L175.7,243.6 L171.1,244.2 L166.5,244.5 L161.8,244.5 L157.2,244.2 L152.6,243.6 L148.1,242.8 L143.7,241.7 L139.4,240.4 L135.2,239.0 L131.1,237.4 L127.2,235.8 L123.4,234.0 L119.7,232.2 L116.1,230.4 L112.6,228.5 L109.1,226.6 L105.7,224.7 L102.3,222.8 L99.0,220.8 L95.7,218.8 L92.5,216.7 L89.4,214.6 L86.3,212.3 L83.3,210.0 L80.4,207.5 L77.7,205.0 L75.1,202.3 L72.7,199.5 L70.5,196.6 L68.5,193.6 L66.6,190.5 L64.9,187.3 L63.4,184.1 L62.1,180.8 L60.9,177.5 L59.9,174.1 L59.0,170.8 L58.1,167.3 L57.4,163.9 L56.7,160.4 L56.2,156.8 L55.6,153.2 L55.2,149.5 L54.9,145.8 L54.8,142.1 L54.8,138.2 L55.0,134.4 L55.4,130.5 L56.1,126.6 L57.1,122.7 L58.5,118.8 L60.2,115.1 L62.2,111.4 L64.6,108.0 L67.4,104.7 L70.5,101.6 L74.0,98.7 L77.8,96.2 L81.8,93.9 L86.0,91.9 L90.4,90.2 L94.9,88.7 L99.5,87.5 L104.2,86.6 L108.8,85.8 L113.4,85.3 L118.0,84.8 L122.6,84.6 L127.0,84.4 L131.4,84.2 L135.7,84.1 L140.0,84.1 L144.2,84.1 L148.4,84.1 L152.6,84.2 L156.8,84.3 L160.9,84.5 L165.1,84.7 L169.2,85.1 L173.4,85.6 L177.5,86.3 L181.6,87.1 L185.7,88.1 L189.6,89.3 L193.5,90.7 L197.3,92.2 L200.9,94.0 L204.5,95.9 L207.9,98.0 L211.1,100.2 L214.3,102.5 L217.3,104.9 L220.2,107.4 L223.0,109.9 L225.7,112.6 L228.3,115.2 L230.9,118.0 L233.4,120.8 L235.9,123.6 L238.3,126.5 L240.6,129.5 L242.9,132.6 L245.0,135.7 L247.0,139.0 L248.8,142.3 L250.4,145.8 L251.8,149.3 L252.9,153.0 L253.8,156.6 Z" fill="none" stroke="#2f6b4f" stroke-width="0.8" opacity="0.43"/>
<path d="M281.3,160.4 L281.5,165.1 L281.3,169.9 L280.6,174.6 L279.6,179.3 L278.1,183.9 L276.3,188.4 L274.1,192.7 L271.7,197.0 L268.9,201.1 L266.0,205.1 L262.9,209.0 L259.7,212.8 L256.4,216.5 L253.0,220.2 L249.5,223.7 L246.0,227.3 L242.4,230.7 L238.7,234.2 L234.9,237.6 L231.0,241.0 L227.0,244.3 L222.8,247.5 L218.4,250.6 L213.8,253.6 L208.9,256.3 L203.9,258.8 L198.7,261.0 L193.2,262.9 L187.6,264.4 L181.9,265.6 L176.1,266.4 L170.2,266.8 L164.3,266.8 L158.4,266.4 L152.6,265.7 L146.9,264.6 L141.3,263.3 L135.9,261.7 L130.6,259.9 L125.4,257.9 L120.5,255.8 L115.7,253.6 L111.0,251.3 L106.4,249.0 L101.9,246.6 L97.6,244.2 L93.2,241.8 L89.0,239.4 L84.8,236.9 L80.7,234.3 L76.6,231.7 L72.6,229.0 L68.7,226.1 L64.9,223.2 L61.3,220.1 L57.8,216.8 L54.6,213.4 L51.5,209.9 L48.7,206.2 L46.1,202.4 L43.8,198.5 L41.7,194.5 L39.8,190.4 L38.1,186.3 L36.6,182.1 L35.3,177.8 L34.1,173.5 L33.1,169.2 L32.2,164.8 L31.3,160.4 L30.6,155.9 L29.9,151.3 L29.4,146.7 L29.0,142.0 L28.8,137.2 L28.8,132.3 L29.1,127.5 L29.6,122.5 L30.5,117.6 L31.8,112.7 L33.5,107.8 L35.6,103.1 L38.2,98.5 L41.3,94.1 L44.8,89.9 L48.8,86.0 L53.2,82.4 L57.9,79.2 L63.0,76.3 L68.3,73.7 L73.9,71.5 L79.6,69.7 L85.4,68.2 L91.3,67.0 L97.2,66.1 L103.1,65.3 L108.9,64.8 L114.6,64.4 L120.2,64.2 L125.8,64.0 L131.2,63.9 L136.6,63.9 L142.0,63.8 L147.3,63.9 L152.6,63.9 L157.9,64.1 L163.1,64.3 L168.4,64.7 L173.7,65.1 L178.9,65.8 L184.1,66.6 L189.3,67.7 L194.4,68.9 L199.5,70.5 L204.4,72.2 L209.1,74.2 L213.8,76.4 L218.2,78.8 L222.5,81.4 L226.7,84.2 L230.6,87.1 L234.4,90.2 L238.1,93.3 L241.7,96.6 L245.1,99.9 L248.4,103.3 L251.7,106.7 L254.9,110.3 L258.0,113.9 L261.0,117.5 L264.0,121.3 L266.8,125.2 L269.5,129.2 L272.0,133.3 L274.3,137.6 L276.4,141.9 L278.2,146.4 L279.6,151.0 L280.6,155.6 Z" fill="none" stroke="#2f6b4f" stroke-width="1.4" opacity="0.39"/>
<text x="270" y="156" font-size="9" fill="#2f6b4f" opacity=".7" font-family="Golos Text, sans-serif">+10.0</text>
<path d="M308.2,160.4 L308.5,166.1 L308.3,171.8 L307.5,177.6 L306.2,183.2 L304.4,188.8 L302.2,194.2 L299.6,199.5 L296.6,204.7 L293.3,209.7 L289.8,214.5 L286.1,219.3 L282.2,223.8 L278.1,228.3 L274.0,232.7 L269.8,237.0 L265.6,241.3 L261.2,245.5 L256.8,249.7 L252.2,253.8 L247.5,257.9 L242.6,261.9 L237.5,265.8 L232.1,269.5 L226.6,273.1 L220.7,276.4 L214.7,279.4 L208.3,282.1 L201.7,284.4 L195.0,286.3 L188.0,287.7 L181.0,288.7 L173.9,289.1 L166.7,289.1 L159.6,288.7 L152.6,287.8 L145.7,286.5 L138.9,284.9 L132.3,282.9 L125.9,280.7 L119.8,278.3 L113.7,275.8 L107.9,273.1 L102.3,270.3 L96.7,267.5 L91.3,264.7 L86.0,261.8 L80.8,258.9 L75.7,255.9 L70.6,252.9 L65.6,249.8 L60.6,246.7 L55.8,243.4 L51.1,239.9 L46.5,236.3 L42.2,232.6 L38.0,228.6 L34.0,224.5 L30.3,220.2 L26.9,215.8 L23.8,211.2 L21.0,206.5 L18.4,201.6 L16.2,196.7 L14.1,191.7 L12.3,186.6 L10.7,181.5 L9.3,176.3 L8.0,171.0 L6.9,165.7 L5.9,160.4 L5.0,154.9 L4.2,149.4 L3.6,143.8 L3.1,138.1 L2.9,132.3 L2.9,126.5 L3.2,120.6 L3.9,114.6 L4.9,108.6 L6.5,102.7 L8.5,96.8 L11.1,91.0 L14.3,85.5 L18.0,80.2 L22.2,75.1 L27.0,70.4 L32.3,66.1 L38.1,62.1 L44.2,58.6 L50.7,55.5 L57.4,52.9 L64.3,50.7 L71.4,48.9 L78.5,47.4 L85.6,46.3 L92.7,45.4 L99.7,44.8 L106.6,44.3 L113.4,44.0 L120.2,43.8 L126.8,43.7 L133.3,43.6 L139.8,43.6 L146.2,43.6 L152.6,43.7 L159.0,43.9 L165.3,44.2 L171.7,44.6 L178.1,45.2 L184.4,46.0 L190.8,47.0 L197.0,48.2 L203.2,49.8 L209.3,51.6 L215.2,53.7 L221.0,56.1 L226.6,58.8 L232.0,61.7 L237.2,64.8 L242.2,68.2 L247.0,71.7 L251.6,75.4 L256.0,79.2 L260.3,83.2 L264.5,87.2 L268.5,91.3 L272.5,95.5 L276.3,99.7 L280.1,104.1 L283.7,108.6 L287.3,113.1 L290.7,117.8 L294.0,122.7 L297.1,127.7 L299.9,132.8 L302.4,138.1 L304.5,143.5 L306.2,149.0 L307.5,154.7 Z" fill="none" stroke="#2f6b4f" stroke-width="0.8" opacity="0.35"/>
<path d="M335.2,160.4 L335.5,167.1 L335.3,173.8 L334.3,180.5 L332.8,187.2 L330.8,193.7 L328.2,200.1 L325.1,206.3 L321.6,212.4 L317.7,218.2 L313.6,223.9 L309.2,229.5 L304.6,234.8 L299.9,240.1 L295.1,245.2 L290.2,250.3 L285.1,255.3 L280.0,260.3 L274.8,265.2 L269.4,270.0 L263.9,274.8 L258.2,279.5 L252.2,284.1 L245.9,288.5 L239.4,292.6 L232.6,296.5 L225.4,300.1 L218.0,303.2 L210.3,305.9 L202.3,308.1 L194.2,309.8 L185.9,310.9 L177.5,311.4 L169.2,311.5 L160.8,310.9 L152.6,309.9 L144.5,308.4 L136.6,306.5 L128.8,304.2 L121.3,301.6 L114.1,298.8 L107.0,295.8 L100.2,292.6 L93.5,289.4 L87.0,286.1 L80.7,282.8 L74.5,279.4 L68.4,276.0 L62.3,272.5 L56.4,269.0 L50.5,265.3 L44.7,261.6 L39.0,257.7 L33.5,253.7 L28.2,249.5 L23.0,245.1 L18.1,240.5 L13.5,235.7 L9.2,230.6 L5.2,225.4 L1.5,220.0 L-1.8,214.5 L-4.8,208.8 L-7.5,203.0 L-9.9,197.1 L-12.0,191.2 L-13.9,185.1 L-15.5,179.0 L-17.0,172.9 L-18.4,166.7 L-19.5,160.4 L-20.6,154.0 L-21.5,147.5 L-22.2,140.9 L-22.8,134.3 L-23.1,127.5 L-23.1,120.6 L-22.7,113.7 L-21.9,106.7 L-20.6,99.6 L-18.8,92.7 L-16.4,85.8 L-13.4,79.0 L-9.7,72.5 L-5.4,66.3 L-0.4,60.3 L5.3,54.8 L11.5,49.7 L18.2,45.1 L25.4,41.0 L33.0,37.4 L40.9,34.3 L49.0,31.7 L57.3,29.6 L65.6,27.8 L74.0,26.5 L82.3,25.5 L90.5,24.7 L98.6,24.2 L106.6,23.9 L114.5,23.6 L122.3,23.5 L130.0,23.4 L137.6,23.4 L145.1,23.4 L152.6,23.5 L160.1,23.7 L167.6,24.0 L175.0,24.5 L182.5,25.2 L190.0,26.1 L197.4,27.3 L204.7,28.8 L212.0,30.6 L219.1,32.7 L226.1,35.2 L232.9,38.0 L239.4,41.2 L245.8,44.6 L251.9,48.3 L257.7,52.2 L263.4,56.4 L268.8,60.7 L274.0,65.2 L279.0,69.8 L283.9,74.5 L288.6,79.3 L293.2,84.2 L297.7,89.2 L302.2,94.4 L306.5,99.6 L310.7,105.0 L314.7,110.5 L318.5,116.1 L322.1,122.0 L325.4,128.0 L328.3,134.2 L330.8,140.6 L332.8,147.1 L334.3,153.7 Z" fill="none" stroke="#2f6b4f" stroke-width="0.8" opacity="0.31"/>
<path d="M362.2,160.4 L362.6,168.1 L362.2,175.8 L361.2,183.5 L359.5,191.1 L357.1,198.6 L354.1,206.0 L350.6,213.1 L346.6,220.0 L342.1,226.8 L337.4,233.3 L332.3,239.7 L327.1,245.8 L321.7,251.9 L316.1,257.8 L310.5,263.6 L304.7,269.3 L298.9,275.0 L292.9,280.7 L286.7,286.2 L280.4,291.7 L273.8,297.1 L266.9,302.4 L259.7,307.4 L252.2,312.2 L244.4,316.6 L236.2,320.7 L227.6,324.3 L218.8,327.4 L209.7,329.9 L200.3,331.8 L190.8,333.1 L181.2,333.8 L171.6,333.8 L162.1,333.2 L152.6,332.0 L143.3,330.2 L134.2,328.0 L125.3,325.4 L116.7,322.5 L108.4,319.2 L100.3,315.8 L92.4,312.2 L84.8,308.5 L77.4,304.7 L70.1,300.8 L62.9,297.0 L55.9,293.0 L49.0,289.1 L42.2,285.0 L35.4,280.8 L28.8,276.6 L22.3,272.1 L15.9,267.5 L9.8,262.7 L3.9,257.6 L-1.8,252.3 L-7.1,246.8 L-12.0,241.0 L-16.6,235.0 L-20.8,228.8 L-24.6,222.5 L-28.1,216.0 L-31.1,209.3 L-33.9,202.6 L-36.3,195.7 L-38.5,188.8 L-40.4,181.8 L-42.1,174.7 L-43.6,167.6 L-45.0,160.4 L-46.2,153.0 L-47.2,145.6 L-48.1,138.1 L-48.7,130.4 L-49.0,122.6 L-49.0,114.7 L-48.6,106.8 L-47.7,98.7 L-46.2,90.7 L-44.2,82.7 L-41.4,74.8 L-37.9,67.0 L-33.7,59.5 L-28.7,52.3 L-23.0,45.6 L-16.5,39.2 L-9.4,33.4 L-1.7,28.1 L6.6,23.3 L15.3,19.2 L24.4,15.7 L33.7,12.7 L43.2,10.2 L52.8,8.3 L62.4,6.7 L71.9,5.6 L81.4,4.7 L90.7,4.1 L99.9,3.7 L108.9,3.4 L117.8,3.2 L126.6,3.2 L135.3,3.1 L144.0,3.2 L152.6,3.3 L161.2,3.5 L169.8,3.9 L178.3,4.5 L186.9,5.3 L195.5,6.3 L204.0,7.7 L212.4,9.4 L220.7,11.4 L228.9,13.9 L236.9,16.7 L244.7,20.0 L252.3,23.6 L259.5,27.5 L266.6,31.7 L273.3,36.3 L279.7,41.0 L285.9,46.0 L291.9,51.1 L297.7,56.4 L303.3,61.8 L308.7,67.4 L314.0,73.0 L319.2,78.7 L324.3,84.6 L329.2,90.6 L334.0,96.8 L338.6,103.1 L343.0,109.6 L347.2,116.3 L350.9,123.2 L354.3,130.3 L357.1,137.6 L359.4,145.1 L361.2,152.7 Z" fill="none" stroke="#2f6b4f" stroke-width="0.8" opacity="0.27"/>
<rect x="20" y="20" width="320" height="220" fill="none" stroke="#2b2f2c" stroke-width="1.2" stroke-dasharray="8 4 2 4"/>
<rect x="20" y="20" width="320" height="70" fill="#eef1ec" stroke="#2b2f2c" stroke-width="1.6"/>
<rect x="30" y="100" width="29" height="20" fill="#b9bdb5" fill-opacity=".55"/>
<rect x="30" y="122" width="29" height="20" fill="#b9bdb5" fill-opacity=".55"/>
<rect x="30" y="144" width="29" height="20" fill="#b9bdb5" fill-opacity=".55"/>
<rect x="61" y="100" width="29" height="20" fill="#b9bdb5" fill-opacity=".55"/>
<rect x="61" y="122" width="29" height="20" fill="#b9bdb5" fill-opacity=".55"/>
<rect x="61" y="144" width="29" height="20" fill="#b9bdb5" fill-opacity=".55"/>
<rect x="92" y="100" width="29" height="20" fill="#b9bdb5" fill-opacity=".55"/>
<rect x="92" y="122" width="29" height="20" fill="#b9bdb5" fill-opacity=".55"/>
<rect x="92" y="144" width="29" height="20" fill="#b9bdb5" fill-opacity=".55"/>
<rect x="123" y="100" width="29" height="20" fill="#b9bdb5" fill-opacity=".55"/>
<rect x="123" y="122" width="29" height="20" fill="#b9bdb5" fill-opacity=".55"/>
<rect x="123" y="144" width="29" height="20" fill="#b9bdb5" fill-opacity=".55"/>
<rect x="154" y="100" width="29" height="20" fill="#b9bdb5" fill-opacity=".55"/>
<rect x="154" y="122" width="29" height="20" fill="#b9bdb5" fill-opacity=".55"/>
<rect x="154" y="144" width="29" height="20" fill="#b9bdb5" fill-opacity=".55"/>
<rect x="185" y="100" width="29" height="20" fill="#b9bdb5" fill-opacity=".55"/>
<rect x="185" y="122" width="29" height="20" fill="#b9bdb5" fill-opacity=".55"/>
<rect x="185" y="144" width="29" height="20" fill="#b9bdb5" fill-opacity=".55"/>
<rect x="216" y="100" width="29" height="20" fill="#b9bdb5" fill-opacity=".55"/>
<rect x="216" y="122" width="29" height="20" fill="#b9bdb5" fill-opacity=".55"/>
<rect x="216" y="144" width="29" height="20" fill="#b9bdb5" fill-opacity=".55"/>
<rect x="247" y="100" width="29" height="20" fill="#b9bdb5" fill-opacity=".55"/>
<rect x="247" y="122" width="29" height="20" fill="#b9bdb5" fill-opacity=".55"/>
<rect x="247" y="144" width="29" height="20" fill="#b9bdb5" fill-opacity=".55"/>
<rect x="278" y="100" width="29" height="20" fill="#b9bdb5" fill-opacity=".55"/>
<rect x="278" y="122" width="29" height="20" fill="#b9bdb5" fill-opacity=".55"/>
<rect x="278" y="144" width="29" height="20" fill="#b9bdb5" fill-opacity=".55"/>
<rect x="309" y="100" width="29" height="20" fill="#b9bdb5" fill-opacity=".55"/>
<rect x="309" y="122" width="29" height="20" fill="#b9bdb5" fill-opacity=".55"/>
<rect x="309" y="144" width="29" height="20" fill="#b9bdb5" fill-opacity=".55"/>
<rect x="30" y="170" width="300" height="60" fill="#c9d3a0" fill-opacity=".6"/>
<circle cx="60" cy="160" r="4" fill="#e8c766" stroke="#2b2f2c" stroke-width=".8"/>
<circle cx="170" cy="160" r="4" fill="#e8c766" stroke="#2b2f2c" stroke-width=".8"/>
<circle cx="280" cy="160" r="4" fill="#e8c766" stroke="#2b2f2c" stroke-width=".8"/>
<circle cx="300.0" cy="200.0" r="18.0" fill="#2f6b4f" fill-opacity=".3" stroke="#1f4a3a" stroke-width="1.1"/><circle cx="300.0" cy="200.0" r="1.6" fill="#1f4a3a"/></g></svg>
